<svg width="123" height="120" viewBox="0 0 123 120" fill="none" xmlns="http://www.w3.org/2000/svg">
<path fill-rule="evenodd" clip-rule="evenodd" d="M61.4149 29.4414C78.4649 29.4414 92.2949 43.2614 92.2949 60.3214C92.2949 77.3714 78.4649 91.2014 61.4149 91.2014C44.3649 91.2014 30.5349 77.3814 30.5349 60.3214C30.5349 43.2614 44.3549 29.4414 61.4149 29.4414Z" fill="#A6601B"/>
<path d="M56.4049 29.2919C56.4449 23.1019 57.8349 17.7019 60.3149 13.0319C62.9949 7.97189 66.9449 3.80189 71.7949 0.451892C72.9549 -0.348108 74.5449 -0.0581076 75.3349 1.10189L75.4049 1.20189C78.5049 6.16189 80.5549 11.3319 81.1449 16.8019C81.7449 22.3019 80.8549 28.0219 78.0849 34.0319C77.4949 35.3119 75.9749 35.8719 74.7049 35.2819L74.5249 35.1919C72.2049 33.9419 69.7849 33.0619 67.2449 32.5319C64.6749 32.0019 61.9649 31.8319 59.1149 32.0219C57.7049 32.1119 56.4949 31.0519 56.3949 29.6419C56.3949 29.5219 56.3949 29.4119 56.4049 29.2919Z" fill="#864D16"/>
<path fill-rule="evenodd" clip-rule="evenodd" d="M58.9449 29.472C58.9649 17.412 64.515 8.56199 73.235 2.54199C79.045 11.842 80.9049 21.832 75.7649 32.952C70.6849 30.212 65.0749 29.062 58.9449 29.472Z" fill="#FFC90E"/>
<path d="M70.165 30.3224L70.1749 30.3024C72.8749 24.6724 76.4849 20.3524 80.7749 17.1724C85.3749 13.7624 90.735 11.6824 96.545 10.7524C97.935 10.5324 99.245 11.4824 99.465 12.8724L99.475 12.9824C100.135 18.7924 99.765 24.3424 97.945 29.5324C96.115 34.7624 92.845 39.5524 87.755 43.7824C86.665 44.6824 85.055 44.5324 84.165 43.4424C84.085 43.3524 84.0149 43.2524 83.9549 43.1524C80.7449 38.8124 76.515 35.7824 71.515 33.8024C70.205 33.2824 69.565 31.8024 70.085 30.4924L70.165 30.3224Z" fill="#864D16"/>
<path fill-rule="evenodd" clip-rule="evenodd" d="M72.455 31.4215C77.665 20.5515 86.485 14.9515 96.945 13.2715C98.195 24.1615 95.565 33.9815 86.135 41.8115C82.745 37.1415 78.175 33.6815 72.455 31.4215Z" fill="#FFC90E"/>
<path d="M82.2849 36.9514C87.1249 33.0614 92.2349 30.7214 97.4549 29.7014C103.075 28.6014 108.805 29.0414 114.455 30.7014C115.805 31.1014 116.575 32.5114 116.185 33.8714L116.155 33.9814C114.255 39.5114 111.525 44.3614 107.645 48.2614C103.745 52.1914 98.7349 55.1114 92.3149 56.7314C90.9449 57.0714 89.5649 56.2414 89.2149 54.8714C89.1949 54.7814 89.1749 54.6914 89.1649 54.6114C88.1449 49.2814 85.6249 44.6914 81.9449 40.7314C80.9849 39.7014 81.0449 38.0814 82.0749 37.1314C82.1549 37.0614 82.2149 37.0014 82.2849 36.9514Z" fill="#864D16"/>
<path fill-rule="evenodd" clip-rule="evenodd" d="M83.825 38.9921C93.205 31.4221 103.575 30.1621 113.745 33.1521C110.185 43.5221 103.585 51.2521 91.7049 54.2621C90.6449 48.5821 88.005 43.4921 83.825 38.9921Z" fill="#FFC90E"/>
<path d="M90.2249 48.2216C96.2849 46.7816 101.925 46.8616 107.115 48.2016C112.675 49.6316 117.655 52.4916 122.035 56.4116C123.085 57.3516 123.175 58.9616 122.235 60.0016L122.155 60.0916C118.065 64.2616 113.505 67.4616 108.335 69.3216C103.115 71.1916 97.3349 71.6716 90.8649 70.3816C89.4849 70.1016 88.5849 68.7616 88.8549 67.3716C88.8749 67.2616 88.9049 67.1616 88.9349 67.0616C89.5849 64.5516 89.8649 62.0216 89.7849 59.4716C89.7049 56.8516 89.2349 54.1816 88.3749 51.4616C87.9549 50.1116 88.7049 48.6816 90.0549 48.2616L90.2249 48.2216Z" fill="#864D16"/>
<path fill-rule="evenodd" clip-rule="evenodd" d="M90.8149 50.7115C102.545 47.9115 112.445 51.2415 120.335 58.3115C112.655 66.1315 103.375 70.2815 91.3549 67.8815C92.8449 62.3015 92.6549 56.5815 90.8149 50.7115Z" fill="#FFC90E"/>
<path d="M92.615 61.8122L92.635 61.8222C98.735 63.1322 103.785 65.6322 107.885 69.0622C112.285 72.7422 115.545 77.4622 117.815 82.9022C118.355 84.2022 117.735 85.6922 116.435 86.2322C116.365 86.2622 116.285 86.2922 116.215 86.3122C110.755 88.2922 105.305 89.2022 99.885 88.6522C94.375 88.0922 88.955 86.0422 83.655 82.0722C82.525 81.2322 82.305 79.6322 83.145 78.5022C83.205 78.4222 83.265 78.3522 83.325 78.2922C84.985 76.3222 86.335 74.1522 87.375 71.7822C88.425 69.3722 89.155 66.7622 89.555 63.9422C89.755 62.5422 91.045 61.5722 92.445 61.7722L92.615 61.8122Z" fill="#864D16"/>
<path fill-rule="evenodd" clip-rule="evenodd" d="M92.0849 64.3018C103.875 66.8218 111.375 74.0918 115.455 83.8718C105.155 87.6318 94.9949 87.3718 85.1849 80.0318C88.9249 75.6418 91.2149 70.3918 92.0849 64.3018Z" fill="#FFC90E"/>
<path d="M89.0249 75.1717C93.9249 78.9617 97.3849 83.3817 99.5949 88.2217C101.975 93.4417 102.895 99.1017 102.605 104.972C102.535 106.382 101.345 107.462 99.935 107.402C99.865 107.402 99.795 107.392 99.715 107.382C93.935 106.822 88.605 105.302 83.935 102.462C79.205 99.5917 75.195 95.4017 72.115 89.5417C71.465 88.2917 71.945 86.7517 73.195 86.1017L73.335 86.0317C75.735 84.9517 77.925 83.5617 79.905 81.8517C81.895 80.1317 83.6749 78.0917 85.2449 75.7217C86.0249 74.5517 87.605 74.2217 88.785 75.0017C88.875 75.0517 88.9549 75.1117 89.0249 75.1717Z" fill="#864D16"/>
<path fill-rule="evenodd" clip-rule="evenodd" d="M87.3849 77.1221C96.9349 84.4721 100.585 94.2621 100.055 104.842C89.1449 103.802 80.0749 99.1921 74.3849 88.3421C79.6549 85.9921 83.9749 82.2421 87.3849 77.1221Z" fill="#FFC90E"/>
<path d="M79.8949 85.5219C82.7249 91.0819 83.9549 96.5919 83.8649 101.942C83.7749 107.682 82.1649 113.192 79.3749 118.362C78.7049 119.602 77.1649 120.072 75.9149 119.402C75.8449 119.362 75.7749 119.322 75.7049 119.272C70.7249 116.272 66.5849 112.612 63.6049 108.062C60.5749 103.442 58.7649 97.9319 58.5049 91.3019C58.4549 89.8919 59.5549 88.7119 60.9649 88.6619H61.1749C63.7949 88.7219 66.3549 88.4019 68.8549 87.7219C71.3849 87.0319 73.8649 85.9519 76.3149 84.4819C77.5249 83.7619 79.0849 84.1519 79.8049 85.3619L79.8949 85.5219Z" fill="#864D16"/>
<path fill-rule="evenodd" clip-rule="evenodd" d="M77.6149 86.6621C83.0749 97.4121 82.1549 107.812 77.1249 117.142C67.7249 111.502 61.5249 103.442 61.0549 91.2021C66.8249 91.3421 72.3449 89.8221 77.6149 86.6621Z" fill="#FFC90E"/>
<path d="M67.245 91.0818C67.395 97.3018 66.135 102.782 63.775 107.542C61.225 112.682 57.395 116.962 52.645 120.432C51.505 121.262 49.915 121.022 49.085 119.882L49.015 119.782C45.785 114.912 43.595 109.792 42.855 104.342C42.105 98.8518 42.835 93.1018 45.455 87.0318C46.015 85.7318 47.515 85.1418 48.805 85.6918C48.895 85.7318 48.995 85.7818 49.075 85.8318C51.395 86.9918 53.815 87.8018 56.335 88.2518C58.925 88.7118 61.635 88.8118 64.465 88.5418C65.865 88.4118 67.105 89.4418 67.245 90.8418C67.245 90.9218 67.245 91.0018 67.245 91.0818Z" fill="#864D16"/>
<path fill-rule="evenodd" clip-rule="evenodd" d="M64.695 91.072C64.995 103.122 59.685 112.122 51.135 118.372C45.075 109.232 42.945 99.292 47.795 88.042C52.935 90.652 58.575 91.652 64.695 91.072Z" fill="#FFC90E"/>
<path d="M53.4249 90.6117C50.8849 96.2817 47.3949 100.682 43.1949 103.962C38.6849 107.502 33.3849 109.712 27.6049 110.802C26.2249 111.062 24.8849 110.152 24.6249 108.762L24.6049 108.642C23.7849 102.852 24.0149 97.2917 25.6949 92.0617C27.3849 86.7917 30.5149 81.9217 35.4949 77.5617C36.5549 76.6317 38.1649 76.7417 39.0849 77.8017L39.1849 77.9217C40.7849 80.0017 42.6549 81.8017 44.7849 83.3317C46.9349 84.8717 49.3349 86.1317 51.9849 87.1017C53.3049 87.5817 53.9949 89.0417 53.5149 90.3717C53.5049 90.4517 53.4649 90.5317 53.4249 90.6117Z" fill="#864D16"/>
<path fill-rule="evenodd" clip-rule="evenodd" d="M51.135 89.4917C46.215 100.502 37.555 106.332 27.145 108.292C25.605 97.4317 27.965 87.5517 37.185 79.4717C40.705 84.0517 45.365 87.3817 51.135 89.4917Z" fill="#FFC90E"/>
<path d="M41.235 84.1723C36.485 88.2223 31.415 90.7123 26.185 91.8823C20.585 93.1323 14.855 92.8523 9.17499 91.3423C7.81499 90.9823 7.00499 89.5923 7.35499 88.2223L7.38499 88.1123C9.13499 82.5323 11.735 77.6023 15.505 73.6023C19.295 69.5723 24.225 66.5223 30.595 64.7223C31.955 64.3423 33.365 65.1323 33.745 66.4923L33.785 66.6523C34.335 69.2223 35.245 71.6523 36.505 73.9423C37.775 76.2523 39.405 78.4123 41.385 80.4423C42.375 81.4423 42.355 83.0623 41.355 84.0423L41.235 84.1723Z" fill="#864D16"/>
<path fill-rule="evenodd" clip-rule="evenodd" d="M39.575 82.2316C30.395 90.0516 20.065 91.5916 9.82495 88.8716C13.105 78.4116 19.495 70.5016 31.295 67.1816C32.505 72.8316 35.275 77.8416 39.575 82.2316Z" fill="#FFC90E"/>
<path d="M32.8549 73.1818C26.8449 74.7718 21.2249 74.8318 16.0349 73.6418C10.4449 72.3618 5.39495 69.6418 0.904947 65.8318C-0.175053 64.9218 -0.305053 63.3118 0.604947 62.2418L0.684947 62.1518C4.66495 57.8718 9.13495 54.5418 14.2649 52.5518C19.4249 50.5418 25.1849 49.9118 31.6949 51.0318C33.0849 51.2718 34.0149 52.5918 33.7849 53.9818L33.7549 54.1418C33.1449 56.7218 32.9149 59.3018 33.0649 61.9018C33.2149 64.5218 33.7649 67.1818 34.6849 69.8818C35.1349 71.2118 34.4249 72.6618 33.0849 73.1218C33.0049 73.1418 32.9349 73.1618 32.8549 73.1818Z" fill="#864D16"/>
<path fill-rule="evenodd" clip-rule="evenodd" d="M32.2649 70.702C20.6149 73.812 10.6349 70.752 2.55493 63.892C10.0249 55.862 19.1949 51.472 31.2649 53.552C29.9349 59.172 30.2749 64.882 32.2649 70.702Z" fill="#FFC90E"/>
<path d="M30.0049 59.6215C18.0749 57.3415 9.38491 50.3015 4.42491 39.2515C3.85491 37.9715 4.42491 36.4615 5.71491 35.8815L5.81491 35.8415V35.8315C11.2549 33.6815 16.7149 32.6015 22.1849 33.0115C27.6949 33.4215 33.1749 35.3315 38.5849 39.1615C39.7349 39.9715 40.0049 41.5615 39.1949 42.7015L39.1049 42.8315C37.4549 44.8815 36.1349 47.1115 35.1549 49.5415C34.1649 51.9815 33.5049 54.6115 33.1749 57.4315C33.0149 58.8315 31.7549 59.8415 30.3449 59.6815C30.2249 59.6715 30.1149 59.6515 30.0049 59.6215Z" fill="#864D16"/>
<path fill-rule="evenodd" clip-rule="evenodd" d="M30.635 57.1423C18.785 54.9323 11.085 47.8723 6.745 38.2023C16.945 34.1723 27.105 34.1523 37.115 41.2323C33.495 45.7323 31.345 51.0423 30.635 57.1423Z" fill="#FFC90E"/>
<path d="M33.4949 46.2615C28.4449 42.5815 24.8449 38.2415 22.4849 33.4415C19.9649 28.2915 18.8949 22.6615 19.0349 16.7815C19.0649 15.3715 20.2249 14.2615 21.6349 14.2815L21.7549 14.2915V14.2815C27.5949 14.6815 32.9849 16.0615 37.7549 18.7815H37.7649C42.5649 21.5215 46.6849 25.6015 49.9149 31.3815C50.6049 32.6115 50.1649 34.1715 48.9349 34.8615C48.8349 34.9215 48.7349 34.9715 48.6249 35.0115C43.7949 37.3715 39.9949 41.0215 37.1449 45.5615C36.4049 46.7515 34.8349 47.1115 33.6349 46.3715L33.4949 46.2615Z" fill="#864D16"/>
<path fill-rule="evenodd" clip-rule="evenodd" d="M34.995 44.212C25.245 37.112 21.335 27.432 21.585 16.832C32.525 17.582 41.705 21.942 47.685 32.632C42.485 35.132 38.265 39.002 34.995 44.212Z" fill="#FFC90E"/>
<path d="M42.1949 35.5019C39.2649 30.0619 37.9049 24.6219 37.8549 19.3119C37.7949 13.5819 39.2549 8.03193 41.9149 2.78193C42.5449 1.52193 44.0849 1.02193 45.3349 1.65193C45.4249 1.69193 45.5049 1.74193 45.5949 1.80193C50.6249 4.66193 54.8549 8.20193 57.9449 12.6619C61.0949 17.2019 63.0649 22.6619 63.4949 29.2619C63.5849 30.6719 62.5149 31.8819 61.1049 31.9719C61.0049 31.9819 60.8949 31.9819 60.7949 31.9719C58.2149 31.9919 55.6949 32.3719 53.2449 33.1219C50.7449 33.8819 48.2849 35.0319 45.8749 36.5619C44.6849 37.3219 43.1049 36.9619 42.3549 35.7719C42.2849 35.6819 42.2349 35.5919 42.1949 35.5019Z" fill="#864D16"/>
<path fill-rule="evenodd" clip-rule="evenodd" d="M44.505 34.4116C38.765 23.8116 39.405 13.3916 44.185 3.93164C53.735 9.31164 60.145 17.2016 60.945 29.4316C55.165 29.4416 49.695 31.1116 44.505 34.4116Z" fill="#FFC90E"/>
<path fill-rule="evenodd" clip-rule="evenodd" d="M61.415 44.1016C70.365 44.1016 77.625 51.3616 77.625 60.3116C77.625 69.2616 70.365 76.5216 61.415 76.5216C52.465 76.5216 45.205 69.2616 45.205 60.3116C45.205 51.3616 52.455 44.1016 61.415 44.1016Z" fill="#864D16"/>
<line x1="53.1213" y1="53" x2="69" y2="68.8787" stroke="#FFF4CD" stroke-width="3" stroke-linecap="round"/>
<line x1="1.5" y1="-1.5" x2="23.9558" y2="-1.5" transform="matrix(-0.707107 0.707107 0.707107 0.707107 71.4 53)" stroke="#FFF4CD" stroke-width="3" stroke-linecap="round"/>
</svg>
