<svg width="122" height="93" viewBox="0 0 122 93" fill="none" xmlns="http://www.w3.org/2000/svg">
<g filter="url(#filter0_d_292_2)">
<path d="M73.1297 57.2322L70.9536 55.8125V57.2253L73.1297 57.2322Z" stroke="black"/>
<path d="M5.32087 27.7702C9.56461 26.5012 17.3074 33.9811 16.6465 41.9276" stroke="black" stroke-linecap="round"/>
<path d="M64.3507 36.6338C61.8723 42.9853 57.7009 47.9729 52.9712 50.907C48.2416 53.841 42.9689 54.7147 38.2609 52.8776C33.5529 51.0405 30.2655 46.8265 28.7732 41.4645C27.2807 36.1025 27.5899 29.6077 30.0684 23.2563C32.5468 16.9049 36.7182 11.9172 41.4479 8.98315C46.1775 6.04911 51.4502 5.17541 56.1582 7.01254C60.8662 8.84967 64.1535 13.0636 65.6459 18.4256C67.1383 23.7877 66.8292 30.2824 64.3507 36.6338Z" fill="#D8F8FF" fill-opacity="0.43" stroke="#D8F8FF" stroke-width="0.5"/>
<path d="M60.9071 49.8205C55.1608 53.4898 48.851 55.0593 43.3009 54.641C37.7509 54.2227 32.9768 51.8201 30.257 47.5606C27.5372 43.3012 27.3661 37.9594 29.3217 32.7484C31.2773 27.5374 35.3559 22.4736 41.1022 18.8044C46.8485 15.1351 53.1583 13.5656 58.7084 13.9839C64.2585 14.4022 69.0325 16.8048 71.7523 21.0643C74.4721 25.3237 74.6432 30.6656 72.6876 35.8765C70.732 41.0875 66.6534 46.1513 60.9071 49.8205Z" fill="#D8F8FF" fill-opacity="0.43" stroke="#D8F8FF" stroke-width="0.5"/>
<path d="M72.1023 53.2787C72.1023 60.1518 68.456 66.4093 62.4919 70.9646C56.5274 75.5202 48.2656 78.3522 39.1194 78.3522C29.9732 78.3522 21.7115 75.5202 15.7469 70.9646C9.78277 66.4093 6.13647 60.1518 6.13647 53.2787C6.13647 46.4055 9.78277 40.148 15.7469 35.5928C21.7115 31.0371 29.9732 28.2051 39.1194 28.2051C48.2656 28.2051 56.5274 31.0371 62.4919 35.5928C68.456 40.148 72.1023 46.4055 72.1023 53.2787Z" fill="#FFE040" stroke="#AD8B33"/>
<path d="M27.2554 29.2859C32.4137 27.8061 35.2069 27.4194 39.9966 27.704V78.7371C37.3767 79.056 34.4539 79.0967 27.2554 77.2696V29.2859Z" fill="#5E3E19"/>
<path d="M49.1379 28.793C54.957 30.1276 57.2465 31.1802 62.4591 34.8228V71.5842C57.5214 74.9691 55.1863 76.0816 49.1379 77.729V28.793Z" fill="#5E3E19"/>
<circle cx="15.7415" cy="45.9017" r="2.83139" fill="black"/>
<circle cx="16.4493" cy="45.1903" r="0.707847" fill="#FFF4CD"/>
<path d="M12.3877 62.424L11.9235 62.2383L11.5521 63.1668L12.0164 63.3525L12.3877 62.424ZM21.8239 59.621C21.9741 59.3892 21.908 59.0796 21.6762 58.9294C21.4445 58.7793 21.1349 58.8454 20.9847 59.0771L21.8239 59.621ZM12.0164 63.3525C13.9601 64.13 16.058 63.7442 17.8119 62.9214C19.5636 62.0996 21.0574 60.8037 21.8239 59.621L20.9847 59.0771C20.3355 60.0788 18.9978 61.2605 17.3871 62.0161C15.7787 62.7707 13.9833 63.0622 12.3877 62.424L12.0164 63.3525Z" fill="black"/>
<path d="M7.95491 22.5416C12.1986 21.2727 19.9414 28.7525 19.2806 36.6991" stroke="black" stroke-linecap="round"/>
</g>
<g filter="url(#filter1_dd_292_2)">
<path d="M90.7549 84.0013C105.531 84.0013 117.51 69.9395 117.51 52.5934C117.51 43.7388 114.388 35.74 109.367 30.0306L90.7549 37.0834L72.1428 30.0306C67.1213 35.74 64 43.7388 64 52.5934C64 69.9395 75.9786 84.0013 90.7549 84.0013Z" fill="#EE5332"/>
<path d="M90.7549 21.1855C83.5214 21.1855 76.9583 24.5554 72.1428 30.0306L90.7549 37.0834L109.367 30.0306C104.551 24.5554 97.9883 21.1855 90.7549 21.1855Z" fill="#261515"/>
<circle cx="85.3264" cy="52.5903" r="3.48976" transform="rotate(-90 85.3264 52.5903)" fill="#261515"/>
<circle r="3.48976" transform="matrix(0 -1 -1 0 108.591 61.897)" fill="#261515"/>
<circle cx="72.9182" cy="41.7348" r="3.48976" transform="rotate(-90 72.9182 41.7348)" fill="#261515"/>
<circle r="3.48976" transform="matrix(0 -1 -1 0 108.591 41.7348)" fill="#261515"/>
<circle cx="72.9182" cy="61.897" r="3.48976" transform="rotate(-90 72.9182 61.897)" fill="#261515"/>
<circle r="3.48976" transform="matrix(0 -1 -1 0 96.9587 52.5903)" fill="#261515"/>
<circle cx="85.3264" cy="72.7544" r="3.48976" transform="rotate(-90 85.3264 72.7544)" fill="#261515"/>
<circle r="3.48976" transform="matrix(0 -1 -1 0 96.9587 72.7544)" fill="#261515"/>
<path d="M96.2356 27.1906C99.1045 16.4421 99.6732 12.6533 107.04 10.3262" stroke="black"/>
<path d="M84.8865 26.6164C82.0176 15.8679 81.4489 12.0791 74.0817 9.752" stroke="black"/>
</g>
<defs>
<filter id="filter0_d_292_2" x="0.820801" y="5.80078" width="77.9985" height="81.1055" filterUnits="userSpaceOnUse" color-interpolation-filters="sRGB">
<feFlood flood-opacity="0" result="BackgroundImageFix"/>
<feColorMatrix in="SourceAlpha" type="matrix" values="0 0 0 0 0 0 0 0 0 0 0 0 0 0 0 0 0 0 127 0" result="hardAlpha"/>
<feOffset dy="4"/>
<feGaussianBlur stdDeviation="2"/>
<feComposite in2="hardAlpha" operator="out"/>
<feColorMatrix type="matrix" values="0 0 0 0 0 0 0 0 0 0 0 0 0 0 0 0 0 0 0.4 0"/>
<feBlend mode="normal" in2="BackgroundImageFix" result="effect1_dropShadow_292_2"/>
<feBlend mode="normal" in="SourceGraphic" in2="effect1_dropShadow_292_2" result="shape"/>
</filter>
<filter id="filter1_dd_292_2" x="56" y="9.27539" width="65.5098" height="82.7266" filterUnits="userSpaceOnUse" color-interpolation-filters="sRGB">
<feFlood flood-opacity="0" result="BackgroundImageFix"/>
<feColorMatrix in="SourceAlpha" type="matrix" values="0 0 0 0 0 0 0 0 0 0 0 0 0 0 0 0 0 0 127 0" result="hardAlpha"/>
<feOffset dx="-4" dy="4"/>
<feGaussianBlur stdDeviation="2"/>
<feComposite in2="hardAlpha" operator="out"/>
<feColorMatrix type="matrix" values="0 0 0 0 0 0 0 0 0 0 0 0 0 0 0 0 0 0 0.25 0"/>
<feBlend mode="normal" in2="BackgroundImageFix" result="effect1_dropShadow_292_2"/>
<feColorMatrix in="SourceAlpha" type="matrix" values="0 0 0 0 0 0 0 0 0 0 0 0 0 0 0 0 0 0 127 0" result="hardAlpha"/>
<feOffset dy="4"/>
<feGaussianBlur stdDeviation="2"/>
<feComposite in2="hardAlpha" operator="out"/>
<feColorMatrix type="matrix" values="0 0 0 0 0 0 0 0 0 0 0 0 0 0 0 0 0 0 0.4 0"/>
<feBlend mode="normal" in2="effect1_dropShadow_292_2" result="effect2_dropShadow_292_2"/>
<feBlend mode="normal" in="SourceGraphic" in2="effect2_dropShadow_292_2" result="shape"/>
</filter>
</defs>
</svg>
