<svg width="142" height="93" viewBox="0 0 142 93" fill="none" xmlns="http://www.w3.org/2000/svg">
<g filter="url(#filter0_d_292_3)">
<path d="M76.5684 17.6322C71.0685 8.98958 77.1974 5.0484 70.2751 1.27263C62.4622 -2.98895 55.8013 5.04431 47.6208 5.04538C39.4403 5.04645 36.9228 -3.76498 25.5954 1.89883C18.2491 5.57211 21.8198 15.1133 17.4146 22.6657C14.6314 27.4374 6.71645 31.4758 4.19936 39.6567C2.70517 49.0961 10.0029 45.7162 13.0093 54.1305C16.1561 62.9372 13.8211 65.9715 16.1559 69.8628C18.0438 73.0093 27.4738 69.5031 32.5177 74.2679C39.4758 80.841 38.1814 84.3366 45.7329 84.3366C51.3966 84.3366 54.543 80.5609 65.2411 71.1214C75.9391 61.682 83.4906 70.4921 87.8957 62.3122C92.3008 54.1322 85.039 51.5236 86.0078 45.3212C86.7261 40.7226 93.5593 35.2516 91.6715 27.7009C89.6899 19.7756 80.9734 24.5545 76.5684 17.6322Z" fill="#FFE040"/>
<path d="M70.0357 1.71158C71.7063 2.62281 72.5267 3.50892 72.9525 4.41835C73.3861 5.34445 73.4449 6.36 73.4552 7.6314C73.4564 7.7794 73.4569 7.92984 73.4575 8.08282C73.4672 10.563 73.4795 13.7095 76.1465 17.9006C78.3381 21.3446 81.5669 22.0476 84.3873 22.6617C84.5668 22.7008 84.7446 22.7395 84.9203 22.7785C86.4137 23.1102 87.7404 23.4571 88.8182 24.174C89.8694 24.8731 90.7183 25.9499 91.1864 27.8222C92.0843 31.4135 90.9203 34.5288 89.3772 37.3801C88.9918 38.0923 88.5853 38.7834 88.1833 39.4609C88.1347 39.5428 88.0861 39.6245 88.0376 39.7061C87.6868 40.2967 87.341 40.8786 87.0245 41.4464C86.3081 42.7316 85.7079 44.0013 85.5138 45.244C85.0898 47.9589 86.1632 50.0652 87.1674 52.0355C87.3823 52.4572 87.5941 52.8727 87.7873 53.2866C88.3468 54.4851 88.78 55.7004 88.8231 57.0941C88.8661 58.4831 88.5227 60.0933 87.4555 62.0751C86.4086 64.0192 85.2079 64.9071 83.8514 65.3353C82.5418 65.7488 81.0622 65.747 79.3102 65.7448C79.1843 65.7447 79.057 65.7445 78.9282 65.7445C77.0351 65.7445 74.8925 65.7825 72.5416 66.431C70.184 67.0814 67.6391 68.3387 64.9102 70.7465C63.2162 72.2413 61.7156 73.5901 60.3668 74.8025C57.4372 77.4358 55.2237 79.4253 53.2991 80.8688C50.5188 82.9541 48.4197 83.8366 45.7329 83.8366C43.8792 83.8366 42.6164 83.6214 41.6505 83.2252C40.6944 82.833 39.9909 82.2479 39.2783 81.4371C38.8173 80.9125 38.3725 80.319 37.8571 79.6313C37.5523 79.2245 37.2227 78.7848 36.8506 78.307C35.8643 77.0406 34.6237 75.5695 32.8611 73.9044C30.1857 71.3771 26.379 71.0706 23.1707 70.9588C22.8386 70.9472 22.5137 70.9378 22.1968 70.9286C20.9486 70.8923 19.8244 70.8597 18.8753 70.7143C17.6726 70.53 16.9338 70.1875 16.5846 69.6056C15.5566 67.8922 15.4934 66.376 15.4035 64.2187C15.398 64.0877 15.3925 63.9543 15.3866 63.8183C15.284 61.445 15.0766 58.4301 13.4802 53.9622C12.0991 50.097 9.81459 48.5938 7.93478 47.3568C7.68151 47.1902 7.43559 47.0283 7.20021 46.8662C6.21329 46.1865 5.44079 45.5248 4.97767 44.5097C4.51542 43.4965 4.3297 42.0579 4.6877 39.7699C5.91329 35.8163 8.44241 32.8421 11.0599 30.2371C11.705 29.5951 12.3526 28.9782 12.9871 28.3737L13.0187 28.3436C13.6618 27.731 14.292 27.1301 14.8838 26.536C16.0641 25.3509 17.1176 24.1673 17.8465 22.9176C19.723 19.7006 20.1954 16.1194 20.6239 12.871C20.7126 12.1986 20.7994 11.5405 20.8964 10.9028C21.4696 7.13446 22.3835 4.06388 25.8191 2.34604C28.5972 0.95691 30.7991 0.473052 32.6577 0.501149C34.5149 0.529226 36.0727 1.06893 37.5692 1.79806C38.2818 2.14526 38.9741 2.53207 39.6827 2.92799C39.7217 2.94977 39.7607 2.97157 39.7998 2.9934C40.5449 3.40955 41.3085 3.83294 42.1078 4.20992C43.7133 4.96721 45.4789 5.54566 47.6208 5.54538C49.7473 5.5451 51.759 5.02282 53.6832 4.32629C54.8641 3.89881 56.0451 3.39183 57.1991 2.89644C57.9023 2.59456 58.5955 2.29698 59.2726 2.02431C62.909 0.559839 66.3379 -0.305409 70.0357 1.71158Z" stroke="#FFCA00" stroke-opacity="0.7"/>
<circle cx="48.8792" cy="39.6566" r="19.5082" fill="#5E3E19"/>
</g>
<g filter="url(#filter1_d_292_3)">
<path d="M133.13 59.2322L130.954 57.8125V59.2253L133.13 59.2322Z" stroke="black"/>
<path d="M65.3208 29.7701C69.5647 28.5012 77.3075 35.9809 76.6466 43.9274" stroke="black" stroke-linecap="round"/>
<path d="M124.351 38.6338C121.872 44.9853 117.701 49.9729 112.971 52.907C108.242 55.841 102.969 56.7147 98.2609 54.8776C93.5529 53.0405 90.2655 48.8265 88.7732 43.4645C87.2807 38.1025 87.5899 31.6077 90.0684 25.2563C92.5468 18.9049 96.7182 13.9172 101.448 10.9832C106.178 8.04911 111.45 7.17541 116.158 9.01254C120.866 10.8497 124.154 15.0636 125.646 20.4256C127.138 25.7877 126.829 32.2824 124.351 38.6338Z" fill="#D8F8FF" fill-opacity="0.43" stroke="#D8F8FF" stroke-width="0.5"/>
<path d="M120.907 51.8205C115.161 55.4897 108.851 57.0593 103.301 56.641C97.7509 56.2227 92.9768 53.82 90.257 49.5606C87.5372 45.3011 87.3661 39.9593 89.3217 34.7484C91.2773 29.5374 95.3559 24.4736 101.102 20.8043C106.849 17.1351 113.158 15.5655 118.708 15.9839C124.258 16.4022 129.033 18.8048 131.752 23.0643C134.472 27.3237 134.643 32.6655 132.688 37.8764C130.732 43.0874 126.653 48.1513 120.907 51.8205Z" fill="#D8F8FF" fill-opacity="0.43" stroke="#D8F8FF" stroke-width="0.5"/>
<path d="M132.102 55.2787C132.102 62.1518 128.456 68.4093 122.492 72.9646C116.527 77.5202 108.266 80.3522 99.1194 80.3522C89.9732 80.3522 81.7115 77.5202 75.7469 72.9646C69.7828 68.4093 66.1365 62.1518 66.1365 55.2787C66.1365 48.4055 69.7828 42.148 75.7469 37.5928C81.7115 33.0371 89.9732 30.2051 99.1194 30.2051C108.266 30.2051 116.527 33.0371 122.492 37.5928C128.456 42.148 132.102 48.4055 132.102 55.2787Z" fill="#FFE040" stroke="#AD8B33"/>
<path d="M87.2554 31.2859C92.4137 29.8061 95.2069 29.4194 99.9966 29.704V80.7371C97.3767 81.056 94.4539 81.0967 87.2554 79.2696V31.2859Z" fill="#5E3E19"/>
<path d="M109.138 30.793C114.957 32.1276 117.247 33.1802 122.459 36.8228V73.5842C117.521 76.9691 115.186 78.0816 109.138 79.729V30.793Z" fill="#5E3E19"/>
<circle cx="75.7415" cy="47.8997" r="2.83139" fill="black"/>
<circle cx="76.4493" cy="47.1903" r="0.707847" fill="#FFF4CD"/>
<path d="M72.3877 64.424L71.9235 64.2383L71.5521 65.1668L72.0163 65.3525L72.3877 64.424ZM81.8239 61.6208C81.9741 61.3891 81.908 61.0795 81.6762 60.9293C81.4445 60.7791 81.1349 60.8452 80.9847 61.077L81.8239 61.6208ZM72.0163 65.3525C73.96 66.13 76.0579 65.7442 77.8118 64.9213C79.5636 64.0995 81.0574 62.8036 81.8239 61.6208L80.9847 61.077C80.3355 62.0787 78.9978 63.2604 77.3871 64.016C75.7786 64.7706 73.9832 65.0622 72.3877 64.424L72.0163 65.3525Z" fill="black"/>
<path d="M67.9549 24.5416C72.1987 23.2727 79.9416 30.7524 79.2807 38.6988" stroke="black" stroke-linecap="round"/>
</g>
<defs>
<filter id="filter0_d_292_3" x="0" y="0" width="96" height="92.3359" filterUnits="userSpaceOnUse" color-interpolation-filters="sRGB">
<feFlood flood-opacity="0" result="BackgroundImageFix"/>
<feColorMatrix in="SourceAlpha" type="matrix" values="0 0 0 0 0 0 0 0 0 0 0 0 0 0 0 0 0 0 127 0" result="hardAlpha"/>
<feOffset dy="4"/>
<feGaussianBlur stdDeviation="2"/>
<feComposite in2="hardAlpha" operator="out"/>
<feColorMatrix type="matrix" values="0 0 0 0 0 0 0 0 0 0 0 0 0 0 0 0 0 0 0.4 0"/>
<feBlend mode="normal" in2="BackgroundImageFix" result="effect1_dropShadow_292_3"/>
<feBlend mode="normal" in="SourceGraphic" in2="effect1_dropShadow_292_3" result="shape"/>
</filter>
<filter id="filter1_d_292_3" x="60.8208" y="7.80078" width="77.9985" height="81.1055" filterUnits="userSpaceOnUse" color-interpolation-filters="sRGB">
<feFlood flood-opacity="0" result="BackgroundImageFix"/>
<feColorMatrix in="SourceAlpha" type="matrix" values="0 0 0 0 0 0 0 0 0 0 0 0 0 0 0 0 0 0 127 0" result="hardAlpha"/>
<feOffset dy="4"/>
<feGaussianBlur stdDeviation="2"/>
<feComposite in2="hardAlpha" operator="out"/>
<feColorMatrix type="matrix" values="0 0 0 0 0 0 0 0 0 0 0 0 0 0 0 0 0 0 0.4 0"/>
<feBlend mode="normal" in2="BackgroundImageFix" result="effect1_dropShadow_292_3"/>
<feBlend mode="normal" in="SourceGraphic" in2="effect1_dropShadow_292_3" result="shape"/>
</filter>
</defs>
</svg>
