<svg width="138" height="133" viewBox="0 0 138 133" fill="none" xmlns="http://www.w3.org/2000/svg">
<g filter="url(#filter0_d_169_208)">
<path d="M114 52.5965C114 73.9127 111.067 91.193 99.3334 91.193C87.6001 91.193 84.6667 73.9127 84.6667 52.5965C84.6667 31.2802 86.6223 14 99.3334 14C112.045 14 114 31.2802 114 52.5965Z" fill="#F8EBB5"/>
<line x1="99.5" y1="26.5" x2="99.5" y2="124.5" stroke="#CCAA33" stroke-linecap="round"/>
<line x1="0.5" y1="-0.5" x2="17.8008" y2="-0.5" transform="matrix(-0.441745 0.897141 -0.8334 -0.55267 107.169 26)" stroke="#CCAA33" stroke-linecap="round"/>
<line x1="0.5" y1="-0.5" x2="25.0392" y2="-0.5" transform="matrix(-0.395681 0.918388 -0.864935 -0.501885 109.19 42.418)" stroke="#CCAA33" stroke-linecap="round"/>
<line x1="0.5" y1="-0.5" x2="25.0392" y2="-0.5" transform="matrix(-0.395681 0.918388 -0.864935 -0.501885 109.19 68.2188)" stroke="#CCAA33" stroke-linecap="round"/>
<line x1="0.5" y1="-0.5" x2="17.8008" y2="-0.5" transform="matrix(0.441745 0.897141 -0.8334 0.55267 91 26)" stroke="#CCAA33" stroke-linecap="round"/>
<line x1="0.5" y1="-0.5" x2="25.0392" y2="-0.5" transform="matrix(0.395681 0.918388 0.864935 -0.501885 90 42)" stroke="#CCAA33" stroke-linecap="round"/>
<line x1="0.5" y1="-0.5" x2="25.0392" y2="-0.5" transform="matrix(0.395681 0.918388 0.864935 -0.501885 90 68)" stroke="#CCAA33" stroke-linecap="round"/>
<path d="M86.2104 64.9481C86.2104 86.2643 83.1227 103.545 70.7718 103.545C58.421 103.545 55.3333 86.2643 55.3333 64.9481C55.3333 43.6318 57.3917 26.3516 70.7718 26.3516C84.152 26.3516 86.2104 43.6318 86.2104 64.9481Z" fill="#F8EBB5"/>
<line x1="70.5" y1="32.5" x2="70.5" y2="124.5" stroke="#CCAA33" stroke-linecap="round"/>
<line x1="0.5" y1="-0.5" x2="17.8008" y2="-0.5" transform="matrix(-0.441733 0.897146 -0.833391 -0.552683 77.595 37.668)" stroke="#CCAA33" stroke-linecap="round"/>
<line x1="0.5" y1="-0.5" x2="25.0392" y2="-0.5" transform="matrix(-0.395692 0.918383 -0.864942 -0.501872 80.1055 54)" stroke="#CCAA33" stroke-linecap="round"/>
<line x1="0.5" y1="-0.5" x2="25.0392" y2="-0.5" transform="matrix(-0.395692 0.918383 -0.864942 -0.501872 80.1055 80)" stroke="#CCAA33" stroke-linecap="round"/>
<line x1="0.5" y1="-0.5" x2="17.8008" y2="-0.5" transform="matrix(0.441734 0.897146 -0.833392 0.552682 61.4265 37.668)" stroke="#CCAA33" stroke-linecap="round"/>
<line x1="0.5" y1="-0.5" x2="25.0392" y2="-0.5" transform="matrix(0.395692 0.918383 0.864942 -0.501872 61 54)" stroke="#CCAA33" stroke-linecap="round"/>
<line x1="0.5" y1="-0.5" x2="25.0392" y2="-0.5" transform="matrix(0.395692 0.918383 0.864942 -0.501872 61 80)" stroke="#CCAA33" stroke-linecap="round"/>
<path d="M56.8772 52.5965C56.8772 73.9127 53.7895 91.193 41.4386 91.193C29.0877 91.193 26 73.9127 26 52.5965C26 31.2802 28.0585 14 41.4386 14C54.8187 14 56.8772 31.2802 56.8772 52.5965Z" fill="#F8EBB5"/>
<line x1="41.5" y1="26.5" x2="41.5" y2="124.5" stroke="#CCAA33" stroke-linecap="round"/>
<line x1="0.5" y1="-0.5" x2="17.8008" y2="-0.5" transform="matrix(-0.441745 0.897141 -0.8334 -0.55267 49.0845 26)" stroke="#CCAA33" stroke-linecap="round"/>
<line x1="0.5" y1="-0.5" x2="25.0392" y2="-0.5" transform="matrix(-0.395681 0.918388 -0.864935 -0.501885 51.1055 42)" stroke="#CCAA33" stroke-linecap="round"/>
<line x1="0.5" y1="-0.5" x2="25.0392" y2="-0.5" transform="matrix(-0.395681 0.918388 -0.864935 -0.501885 51.3213 68.1602)" stroke="#CCAA33" stroke-linecap="round"/>
<line x1="0.5" y1="-0.5" x2="17.8008" y2="-0.5" transform="matrix(0.441745 0.897141 -0.8334 0.55267 33.1318 25.9414)" stroke="#CCAA33" stroke-linecap="round"/>
<line x1="0.5" y1="-0.5" x2="25.0392" y2="-0.5" transform="matrix(0.395681 0.918388 0.864935 -0.501885 32 42)" stroke="#CCAA33" stroke-linecap="round"/>
<line x1="0.5" y1="-0.5" x2="25.0392" y2="-0.5" transform="matrix(0.395681 0.918388 0.864935 -0.501885 32 68)" stroke="#CCAA33" stroke-linecap="round"/>
<path d="M130.86 32.8286C120.126 32.8286 116.287 38.7974 116.287 65.6572C116.287 38.7974 112.858 32.8286 100 32.8286C112.858 32.8286 116.287 23.8753 116.287 0C116.287 23.8753 120.203 32.8286 130.86 32.8286Z" fill="white"/>
<path d="M133.431 49.7424C127.468 49.7424 125.335 52.9982 125.335 67.649C125.335 52.9982 123.43 49.7424 116.287 49.7424C123.43 49.7424 125.335 44.8589 125.335 31.8359C125.335 44.8589 127.511 49.7424 133.431 49.7424Z" fill="white"/>
<path d="M34.8596 53.8286C24.126 53.8286 20.287 59.7974 20.287 86.6572C20.287 59.7974 16.8582 53.8286 4 53.8286C16.8582 53.8286 20.287 44.8753 20.287 21C20.287 44.8753 24.2027 53.8286 34.8596 53.8286Z" fill="white"/>
<path d="M37.4311 70.7424C31.468 70.7424 29.3352 73.9982 29.3352 88.649C29.3352 73.9982 27.4303 70.7424 20.2869 70.7424C27.4303 70.7424 29.3352 65.8589 29.3352 52.8359C29.3352 65.8589 31.5106 70.7424 37.4311 70.7424Z" fill="white"/>
</g>
<defs>
<filter id="filter0_d_169_208" x="0" y="0" width="137.431" height="133" filterUnits="userSpaceOnUse" color-interpolation-filters="sRGB">
<feFlood flood-opacity="0" result="BackgroundImageFix"/>
<feColorMatrix in="SourceAlpha" type="matrix" values="0 0 0 0 0 0 0 0 0 0 0 0 0 0 0 0 0 0 127 0" result="hardAlpha"/>
<feOffset dy="4"/>
<feGaussianBlur stdDeviation="2"/>
<feComposite in2="hardAlpha" operator="out"/>
<feColorMatrix type="matrix" values="0 0 0 0 0 0 0 0 0 0 0 0 0 0 0 0 0 0 0.4 0"/>
<feBlend mode="normal" in2="BackgroundImageFix" result="effect1_dropShadow_169_208"/>
<feBlend mode="normal" in="SourceGraphic" in2="effect1_dropShadow_169_208" result="shape"/>
</filter>
</defs>
</svg>
